<svg width="288" height="180" viewBox="0 0 288 180" fill="none" xmlns="http://www.w3.org/2000/svg">
<rect width="288" height="180" fill="#F2F2F2"/>
<path d="M95.8895 79.4239C95.2477 72.4651 96.1152 64.4002 98.9791 55.5577C98.9791 55.5577 94.5255 53.6973 92.7907 51.5471C91.0558 49.3969 89.224 48.7751 88.7516 42.3042C88.2792 35.8334 89.471 33.3941 91.9302 30.1112C94.3894 26.8283 99.2069 25.1 102.722 25.1962C106.237 25.2925 108.495 25.4275 111.031 27.5339C113.567 29.6403 116.612 34.5727 116.612 34.5727C119.072 32.3565 123.975 30.4647 128.631 29.1975C133.287 27.9303 139.416 27.5926 148.547 28.0872C152.729 28.3137 155.865 28.8889 158.649 29.9795C158.649 29.9795 160.668 26.2744 163.864 24.1601C167.06 22.0457 168.199 21.3918 172.452 21.4852C176.704 21.5785 179.983 22.9657 181.852 25.3304C183.72 27.6951 185.174 29.906 185.651 35.9835C186.129 42.061 184.141 44.2018 183.107 45.0159C182.073 45.83 179.25 48.1172 179.25 48.1172C180.062 49.5241 178.875 46.5376 181.211 52.9702C183.547 59.4027 184.725 67.9311 185.214 71.0445C185.703 74.1578 187.201 76.5615 187.608 77.9547C188.016 79.3478 190.233 81.5499 188.496 89.4525C186.76 97.3551 175.003 107.369 160.679 110.014C146.355 112.658 130.142 112.688 119.453 109.233C108.764 105.778 103.989 98.3078 101.549 95.2884C99.1086 92.269 96.5313 86.3827 95.8895 79.4239Z" fill="#B8B8B8"/>
<path d="M139.46 31.2668C131.877 31.6478 119.714 37.8979 119.805 38.3614C119.896 38.8249 134.571 35.964 139.944 35.5192C145.317 35.0743 157.859 35.9433 157.996 35.1265C158.133 34.3097 147.043 30.8858 139.46 31.2668Z" fill="#837A6D"/>
<path d="M102.447 52.0307C100.922 53.3485 98.8857 55.3355 98.7303 55.2724C98.5749 55.2094 92.282 51.3928 90.6536 49.0901C89.0253 46.7874 88.8111 44.586 88.5795 42.5885C88.3479 40.591 88.6414 37.6688 89.1037 35.293C89.5651 32.9214 90.4529 31.7786 91.5196 30.4053L91.5254 30.3979C92.5947 29.0213 94.7672 27.2465 96.386 26.413C98.0049 25.5794 100.09 25.0446 102.936 25.0568C105.783 25.0691 107.866 25.2019 110.317 26.9816C112.767 28.7614 114.764 31.7938 114.764 31.7938C114.764 31.7938 114.001 33.0525 112.562 34.2382C111.123 35.4238 110.165 35.6774 109.693 35.8512C109.222 36.025 105.632 48.9569 105.361 49.6058C105.09 50.2547 103.971 50.7128 102.447 52.0307Z" fill="#695D4D"/>
<path d="M175.689 45.6696C177.32 46.7521 178.915 47.9216 179.256 48.0246C179.597 48.1276 184.923 42.8813 185.172 41.9471C185.421 41.013 185.91 39.6802 185.91 37.6475V37.6212C185.91 35.5853 185.91 32.1674 185.063 29.8059C184.211 27.4342 183.236 25.7605 181.861 24.5321C180.485 23.3036 179.239 22.6259 177.198 22.0328C175.156 21.4398 172.834 21.3125 171.116 21.3125C169.399 21.3125 167.263 21.5336 164.813 23.3133C162.362 25.093 161.866 25.7932 161.866 25.7932C161.866 25.7932 162.392 27.3322 163.831 28.5178C165.27 29.7035 166.411 30.3246 166.882 30.4985C167.354 30.6723 171.319 42.4463 171.59 43.0952C171.861 43.7441 174.058 44.5871 175.689 45.6696Z" fill="#695D4D"/>
<path d="M112.815 42.5983C112.56 44.393 106.387 49.6856 105.384 49.7275C104.381 49.7694 98.1892 48.3252 96.251 45.3477C94.3129 42.3702 94.586 38.6225 95.3157 36.8717C96.0454 35.1208 98.9527 32.5351 102.339 32.3713C104.248 32.279 105.874 32.781 107.077 33.435C108.007 33.9408 108.685 34.5374 109.044 35.0204C109.87 36.1279 113.07 40.8036 112.815 42.5983Z" fill="#A0A0A0"/>
<path d="M164.265 36.0493C164.52 37.844 170.693 43.1366 171.696 43.1785C172.699 43.2204 178.891 41.7762 180.829 38.7987C182.767 35.8212 181.91 32.7606 181.181 31.0098C180.451 29.2589 178.055 26.6759 174.669 26.5122C172.759 26.4198 171.351 26.4374 170.148 27.0914C169.218 27.5971 168.301 28.365 167.851 28.8176C167.402 29.2702 164.01 34.2546 164.265 36.0493Z" fill="#A0A0A0"/>
<path d="M94.9091 42.5114C95.3108 44.2375 96.1279 45.5816 96.7366 45.8525C97.3453 46.1234 99.1083 45.283 100.333 44.1384C101.557 42.9937 103.399 43.7136 104.666 42.5114C105.933 41.3092 105.075 39.2067 106.228 38.6473C107.382 38.0878 110.401 37.0264 110.09 36.4305C109.778 35.8347 109.351 35.2029 108.554 34.4807C107.757 33.7584 107.25 33.5426 106.659 33.1996C105 32.236 102.56 32.2615 101.246 32.5079C99.9307 32.7544 96.8468 33.9211 95.5542 36.4305C94.2616 38.94 94.5074 40.7852 94.9091 42.5114Z" fill="#E2E2E2"/>
<path d="M181.126 30.6701C182.084 32.981 182.359 35.5798 181.604 37.3439C181.301 38.0497 180.878 38.9301 180.203 39.6073C179.192 40.6224 178.216 41.137 177.988 41.2023C177.609 41.3113 176.954 38.948 175.73 37.8034C174.506 36.6587 172.358 37.3061 171.092 36.1039C169.825 34.9017 170.467 34.1171 169.485 33.0975C168.504 32.078 165.851 32.1663 166.007 31.5577C166.107 31.1657 167.319 29.3128 168.011 28.6005C168.702 27.8883 169.399 27.4811 169.99 27.1381C171.649 26.1745 174.248 26.3746 175.717 26.6497C177.186 26.9249 180.168 28.3592 181.126 30.6701Z" fill="#E2E2E2"/>
<path d="M129.195 38.405C128.119 36.1036 123.512 30.9867 123.807 30.7232C124.102 30.4597 127.91 29.3338 127.91 29.3338C127.91 29.3338 132.987 28.1664 133.404 28.2515C133.822 28.3367 134.468 32.6656 134.847 35.791C135.226 38.9165 134.753 48.5594 134.497 48.5201C134.241 48.4807 130.272 40.7065 129.195 38.405Z" fill="#695D4D"/>
<path d="M145.156 36.5407C144.356 32.6996 142.655 27.96 142.977 27.8901C143.3 27.8202 145.594 27.8398 146.666 27.8901C147.738 27.9405 150.611 28.1248 150.862 28.2126C151.112 28.3003 151.265 30.2935 150.862 36.0509C150.458 41.8083 147.308 48.604 146.666 48.604C146.024 48.604 145.955 40.3818 145.156 36.5407Z" fill="#695D4D"/>
<path d="M131.611 92.6228C128.02 95.0587 119.233 95.0705 113.316 92.6228C107.399 90.1751 102.639 84.0751 101.412 78.0367C100.185 71.9984 99.4089 55.0377 98.9629 55.5811C98.186 56.528 97.2628 61.5429 96.7642 63.6704C96.2655 65.7978 95.84 69.3994 95.6228 74.6001C95.4055 79.8009 96.7904 85.4165 97.9716 89.0197C99.1529 92.6228 103.452 98.6143 106.354 101.551C109.255 104.488 116.821 108.626 119.187 109.318C121.552 110.01 129.186 112.081 136.917 112.165C144.648 112.249 157.682 110.783 160.719 110.006C163.757 109.23 173.525 108.238 181.175 100.791C183.194 98.8258 184.721 96.8537 185.555 95.544C186.39 94.2343 188.423 91.821 188.984 88.1832C189.545 84.5454 189.133 82.9737 188.788 81.4273C188.443 79.881 187.108 76.4662 186.911 76.1858C186.715 75.9055 183.53 84.3505 179.307 86.4458C175.085 88.5412 171.649 88.7209 168.389 88.3473C165.13 87.9738 163.178 86.2494 160.719 82.832C158.26 79.4147 154.5 77.8981 150.61 78.0366C146.719 78.175 143.989 79.3913 141.325 82.832C138.66 86.2728 135.202 90.1869 131.611 92.6228Z" fill="#E6E6E6"/>
<path d="M95.5898 75.5107C95.59 74.3486 95.6411 72.1937 95.7885 72.0302C95.9359 71.8668 101.077 70.562 102.495 70.372C103.914 70.182 106.605 70.0709 108.767 70.372C110.929 70.6731 115.283 72.7166 115.312 73.0085C115.342 73.3004 105.249 74.2441 102.495 75.0719C99.7422 75.8996 95.7752 78.9926 95.7532 78.8887C95.7312 78.7848 95.5897 76.6729 95.5898 75.5107Z" fill="#695D4D"/>
<path d="M97.2566 87.0922C96.9843 86.0818 96.4898 84.0395 96.6372 83.8761C96.7847 83.7126 101.842 81.729 103.172 81.3389C104.502 80.9488 108.222 80.2116 110.917 80.4466C113.612 80.6817 117.837 81.2513 117.882 81.6094C117.927 81.9674 106.506 84.6344 104.076 85.7494C101.646 86.8643 98.3766 89.8453 98.2957 89.8453C98.2149 89.8453 97.5289 88.1027 97.2566 87.0922Z" fill="#695D4D"/>
<path d="M102.045 96.343C101.776 95.9928 100.7 94.4318 100.712 94.2985C100.723 94.1652 104.183 91.87 105.363 91.3033C106.543 90.7366 110.83 89.2113 113.428 88.9672C116.025 88.7231 119.78 89.3029 119.78 89.3029C119.78 89.3029 112.739 91.7743 108.546 93.9406C104.353 96.1069 103.529 98.1638 103.448 98.1638C103.367 98.1638 102.314 96.6931 102.045 96.343Z" fill="#695D4D"/>
<path d="M120.65 62.7347C120.65 62.7347 123.97 56.7168 128.552 56.3975C133.134 56.0782 134.955 57.9358 135.99 59.476C137.025 61.0162 138.255 63.3193 139.075 66.1043C139.895 68.8893 140.589 70.3036 139.981 73.0615C139.376 75.8088 137.977 76.8184 136.249 78.066L136.229 78.0804C134.491 79.3347 131.534 79.452 128.552 79.4724C125.57 79.4927 122.584 77.9913 120.966 76.4089C119.348 74.8265 118.773 73.7902 118.507 70.5046C118.241 67.219 120.65 62.7347 120.65 62.7347Z" fill="#E9E9E9"/>
<path d="M173.783 61.122C173.783 61.122 170.658 55.4576 166.345 55.1571C162.033 54.8566 160.318 56.605 159.344 58.0547C158.37 59.5044 157.236 60.9052 156.464 63.5266C155.692 66.148 155.45 68.4456 156.022 71.0415C156.594 73.6374 157.484 74.3857 159.12 75.5662C160.755 76.7468 162.437 78.0525 166.599 77.515C170.762 76.9775 172.5 75.6146 173.604 74.1921C174.708 72.7696 175.549 71.5281 175.8 68.4355C176.051 65.3429 173.783 61.122 173.783 61.122Z" fill="#E9E9E9"/>
<path d="M120.918 57.9853C119.661 58.7551 117.337 60.3151 117.84 61.1719C118.343 62.0287 120.058 61.2417 120.722 61.0071C121.386 60.7724 123.548 59.7558 124.453 59.2934C125.359 58.8311 126.813 57.8495 127.765 57.1393C128.716 56.4291 130.107 55.272 129.616 54.5397C129.126 53.8075 126.594 54.9175 125.451 55.4867C124.307 56.0559 122.176 57.2154 120.918 57.9853Z" fill="#695D4D"/>
<path d="M172.16 55.3504C173.489 55.9942 175.957 57.3207 175.543 58.2222C175.128 59.1237 173.342 58.5073 172.658 58.3383C171.974 58.1693 169.721 57.3678 168.774 56.9958C167.826 56.6237 166.281 55.7883 165.263 55.174C164.245 54.5598 162.745 53.5436 163.16 52.7672C163.575 51.9908 166.205 52.8493 167.4 53.3045C168.595 53.7598 170.832 54.7065 172.16 55.3504Z" fill="#695D4D"/>
<path d="M149.078 77.877C144.932 78.3558 141.998 81.1152 141.929 82.0603C141.861 83.0054 145.217 85.1726 147.844 86.1516C150.471 87.1306 152.662 87.863 155.337 86.1516C158.013 84.4402 160.424 83.099 160.2 82.0603C159.976 81.0216 157.617 79.5399 156.489 78.9258C155.36 78.3117 153.224 77.3982 149.078 77.877Z" fill="#837A6D"/>
<path d="M178.059 61.0346C179.339 59.7506 182.625 58.2145 182.913 58.8195C183.2 59.4245 183.824 62.3947 183.824 62.6892C183.824 62.9838 182.041 62.8064 180.396 63.1628C178.751 63.5192 175.724 64.8604 175.724 64.8604C175.724 64.8604 176.78 62.3185 178.059 61.0346Z" fill="#695D4D"/>
<path d="M179.495 68.3495C181.277 67.1373 184.368 66.0322 184.476 66.366C184.584 66.6999 185.183 70.3935 185.157 70.6118C185.131 70.83 183.952 70.4878 181.713 70.4878C179.474 70.4878 176.016 71.065 176.016 71.065C176.016 71.065 177.713 69.5617 179.495 68.3495Z" fill="#695D4D"/>
<path d="M182.443 77.0591C184.272 76.5308 186.518 75.3427 186.631 75.5443C186.745 75.7459 188.226 79.3281 188.214 79.4827C188.202 79.6372 184.235 78.9268 183.128 78.7677C182.021 78.6087 178.167 77.7475 178.167 77.7475C178.167 77.7475 180.613 77.5875 182.443 77.0591Z" fill="#695D4D"/>
<path d="M152.39 79.0983C151.681 79.0188 149.092 78.8251 149.036 79.5166C148.979 80.2082 150.794 81.0209 152.014 81.2173C153.233 81.4138 155.336 80.8531 155.234 80.1186C155.132 79.3841 153.1 79.1779 152.39 79.0983Z" fill="#F1F1F1"/>
<path d="M132.349 84.8978C132.349 84.8978 116.174 90.2485 113.482 91.3922C110.791 92.5359 104.34 95.4704 101.514 96.9262C98.6889 98.382 91.1323 103.855 91.1323 103.855" stroke="url(#paint0_linear_7246_66365)" stroke-width="0.4" stroke-linecap="round"/>
<path d="M133.817 86.0612C133.817 86.0612 118.262 92.9713 115.7 94.3731C113.137 95.775 107.014 99.3275 104.349 101.053C101.685 102.779 94.7182 108.965 94.7182 108.965" stroke="url(#paint1_linear_7246_66365)" stroke-width="0.4" stroke-linecap="round"/>
<path d="M130.574 89.2665C130.574 89.2665 118.357 98.4245 116.414 100.182C114.472 101.94 109.884 106.333 107.935 108.414C105.987 110.495 101.337 117.521 101.337 117.521" stroke="url(#paint2_linear_7246_66365)" stroke-width="0.4" stroke-linecap="round"/>
<path d="M87.1175 49.9208C86.8608 49.6993 88.4559 41.991 88.5713 42.1208C88.6866 42.2506 89.1057 47.4346 91.5479 49.9212C93.9901 52.4078 98.8436 54.9111 99.0185 55.6005C99.1934 56.2899 98.951 59.1165 98.6762 59.8059C98.4014 60.4953 96.299 68.6767 96.0544 68.5214C95.8098 68.366 96.9165 60.6336 96.5668 60.4612C96.217 60.2889 94.6881 62.3593 94.4633 62.3593C94.2385 62.3593 92.5707 54.3605 92.3458 54.2866C92.121 54.2127 90.0528 55.9699 89.8063 56.1828C89.5598 56.3958 89.2013 48.8179 88.9124 48.5648C88.6235 48.3117 87.3742 50.1423 87.1175 49.9208Z" fill="#E6E6E6"/>
<path d="M188.805 41.4807C188.986 41.4215 185.942 34.488 185.854 34.6372C185.766 34.7864 186.305 38.2083 185.303 41.2015C184.301 44.1948 179.234 47.7696 179.215 48.0071C179.197 48.2446 180.426 52.2154 180.694 52.8457C180.961 53.4761 183.369 61.6186 183.579 61.4199C183.789 61.2212 181.873 50.8621 182.183 50.6269C182.492 50.3917 185.591 52.6655 185.811 52.623C186.032 52.5805 185.446 45.4017 185.652 45.2867C185.858 45.1717 187.378 47.2281 187.661 47.3905C187.944 47.5529 186.815 40.7132 187.049 40.4102C187.284 40.1071 188.624 41.5398 188.805 41.4807Z" fill="#E6E6E6"/>
<path d="M167.687 85.9693C167.687 85.9693 178.362 91.2736 180.075 92.3937C181.788 93.5137 185.845 96.3795 187.58 97.7945C189.315 99.2095 193.56 104.474 193.56 104.474" stroke="url(#paint3_linear_7246_66365)" stroke-width="0.4" stroke-linecap="round"/>
<path d="M164.266 79.8764C164.266 79.8764 177.444 81.2122 179.672 81.6794C181.899 82.1466 187.264 83.453 189.637 84.19C192.01 84.9271 198.572 88.4248 198.572 88.4248" stroke="url(#paint4_linear_7246_66365)" stroke-width="0.4" stroke-linecap="round"/>
<path d="M166.214 81.6233C166.214 81.6233 179.572 84.1416 181.81 84.808C184.048 85.4744 189.423 87.2601 191.787 88.2087C194.151 89.1573 200.568 93.2359 200.568 93.2359" stroke="url(#paint5_linear_7246_66365)" stroke-width="0.4" stroke-linecap="round"/>
<path d="M165.528 83.1095C165.528 83.1095 178.763 86.9909 180.956 87.8847C183.149 88.7784 188.4 91.1096 190.693 92.2976C192.986 93.4855 199.064 98.2077 199.064 98.2077" stroke="url(#paint6_linear_7246_66365)" stroke-width="0.4" stroke-linecap="round"/>
<path d="M125.846 67.1871C126.906 63.059 129.478 62.1624 131.597 62.0548C133.716 61.9472 134.775 62.7478 135.072 62.9575C135.368 63.1671 137.025 64.5161 137.831 67.1871C138.637 69.8581 138.14 71.9913 137.831 72.9166C137.522 73.8419 136.531 77.5051 132.842 77.7047C129.153 77.9043 127.004 75.7549 126.359 74.8804C125.715 74.0059 124.785 71.3153 125.846 67.1871Z" fill="#695D4D"/>
<path d="M130.652 77.5484C132.374 77.9672 134.451 77.7094 135.572 76.7724C135.968 76.4406 136.457 75.8946 136.828 75.2563C137.503 74.0923 138.004 72.5882 137.907 72.612C137.829 72.6312 136.545 72.0371 135.13 72.296C133.715 72.5549 132.799 74.429 131.643 74.4246C130.448 74.42 129.395 71.7783 127.781 71.4377C126.166 71.097 125.399 71.3385 125.387 71.4377C125.364 71.6341 125.498 73.2909 125.941 74.1392L125.953 74.1615C126.387 74.994 126.581 75.3663 127.781 76.2754C128.991 77.1926 129.911 77.3682 130.652 77.5484Z" fill="url(#paint7_linear_7246_66365)" fill-opacity="0.4"/>
<path d="M129.211 67.6042C129.705 66.6336 130.413 65.8282 132.259 65.835C134.104 65.8418 134.73 67.437 134.936 68.2641C135.141 69.0911 135.164 70.4866 134.816 71.7583C134.469 73.0299 133.714 74.7306 131.968 74.8125C130.222 74.8944 128.977 73.075 128.652 71.7797C128.328 70.4843 128.716 68.5748 129.211 67.6042Z" fill="#504639"/>
<path d="M132.941 66.2803C132.984 65.9159 133.133 65.578 133.831 65.36C134.529 65.1419 135.001 65.5692 135.2 65.8049C135.4 66.0407 135.614 66.4771 135.67 66.9188C135.726 67.3604 135.692 67.9856 135.045 68.2196C134.397 68.4537 133.659 68.0298 133.345 67.6608C133.032 67.2919 132.897 66.6447 132.941 66.2803Z" fill="#F1F1F1"/>
<path d="M127.869 73.0896C127.626 72.6926 127.282 71.7128 127.869 71.3384C128.456 70.9641 128.758 71.5764 129.261 72.3632C129.764 73.15 130.357 73.3754 130.988 73.7871C131.619 74.1988 132.14 74.6009 131.985 75.2013C131.831 75.8017 131.123 75.5078 130.493 75.3448C130.164 75.2596 129.875 75.0232 129.336 74.6334C128.796 74.2435 128.112 73.4866 127.869 73.0896Z" fill="#E9E9E9"/>
<path d="M158.281 65.2164C159.341 61.0883 161.913 60.1917 164.032 60.0841C166.151 59.9765 167.21 60.7771 167.507 60.9868C167.803 61.1964 169.46 62.5454 170.266 65.2164C171.072 67.8874 170.575 70.0206 170.266 70.9459C169.957 71.8712 168.966 75.5344 165.277 75.734C161.589 75.9336 159.439 73.7842 158.794 72.9097C158.15 72.0352 157.221 69.3445 158.281 65.2164Z" fill="#695D4D"/>
<path d="M165.729 75.7001C164.239 75.9238 162.402 75.4873 161.562 75.0886C160.722 74.69 159.633 74.046 158.886 73.0647C158.139 72.0833 157.899 70.5926 157.996 70.6164C158.074 70.6356 159.358 70.0415 160.773 70.3004C162.189 70.5593 163.104 72.4334 164.261 72.429C165.455 72.4244 166.508 69.7827 168.123 69.4421C169.737 69.1014 170.651 68.8029 170.663 68.9021C170.687 69.0985 170.434 70.9531 169.894 72.0772C169.354 73.2013 168.954 73.8855 168.372 74.4107C167.79 74.9359 167.219 75.4764 165.729 75.7001Z" fill="url(#paint8_linear_7246_66365)" fill-opacity="0.4"/>
<path d="M161.646 65.6335C162.14 64.6629 162.848 63.8575 164.694 63.8643C166.539 63.8711 167.165 65.4663 167.371 66.2934C167.576 67.1204 167.599 68.5159 167.251 69.7876C166.904 71.0592 166.149 72.7599 164.403 72.8418C162.657 72.9237 161.412 71.1043 161.087 69.809C160.763 68.5136 161.151 66.6041 161.646 65.6335Z" fill="#504639"/>
<path d="M165.376 64.3096C165.419 63.9452 165.568 63.6073 166.266 63.3892C166.964 63.1712 167.436 63.5985 167.636 63.8342C167.835 64.07 168.049 64.5064 168.105 64.9481C168.161 65.3897 168.127 66.0148 167.48 66.2489C166.832 66.483 166.094 66.0591 165.78 65.6901C165.467 65.3212 165.332 64.674 165.376 64.3096Z" fill="#F1F1F1"/>
<path d="M160.312 71.2562C160.05 70.573 159.991 69.6473 160.495 69.4926C160.998 69.3379 161.266 69.8455 161.769 70.6322C162.272 71.419 162.743 71.8734 163.426 72.1917L163.426 72.1917C164.108 72.5101 164.743 72.8064 164.743 73.2684C164.743 73.7303 164.172 73.9445 163.426 73.8256C162.679 73.7068 162.39 73.4119 161.769 72.994C161.148 72.5762 160.575 71.9394 160.312 71.2562Z" fill="#E9E9E9"/>
<path d="M97.8645 49.5589C97.8181 49.9186 104.474 50.1453 104.983 50.0898C105.492 50.0342 107.554 48.5212 109.581 46.7057C111.608 44.8901 113.058 43.0313 113.177 42.5967C113.296 42.1621 112.137 36.4591 111.812 36.4162C111.488 36.3734 109.9 42.5967 109.581 42.5967C109.262 42.5967 107.634 40.0223 107.356 40.2077C107.078 40.3931 106.9 44.9329 106.326 45.2439C105.752 45.555 100.394 45.0634 100.08 45.2439C99.7647 45.4245 104.424 47.2881 104.3 47.6667C104.177 48.0453 97.9109 49.1991 97.8645 49.5589Z" fill="#E6E6E6"/>
<path d="M179.13 42.9148C179.176 43.2745 173.915 44.4287 173.406 44.3731C172.896 44.3176 169.406 41.9112 167.378 40.0956C165.351 38.28 163.937 36.3872 163.817 35.9526C163.698 35.518 164.672 30.4191 164.997 30.3762C165.322 30.3334 167.095 35.9526 167.414 35.9526C167.733 35.9526 169.36 33.3782 169.638 33.5636C169.916 33.749 170.095 38.2888 170.669 38.5998C171.243 38.9109 176.6 38.4193 176.915 38.5998C177.23 38.7804 172.57 40.644 172.694 41.0226C172.818 41.4012 179.084 42.5551 179.13 42.9148Z" fill="#E6E6E6"/>
<path d="M153.765 75.4776C152.587 74.6796 148.705 73.9621 148.718 73.8784C148.73 73.7946 152.455 73.9108 154.059 75.1875C155.664 76.4643 157.191 78.2519 157.085 78.3515C156.98 78.451 154.943 76.2756 153.765 75.4776Z" fill="#BFBFBF"/>
<path d="M146.689 96.5976C148.73 94.6943 152.063 92.3438 152.063 92.3438C152.063 92.3438 155.919 93.7875 158.926 95.1925C161.934 96.5976 166.375 98.0971 165.5 100.505C164.626 102.913 158.226 101.698 153.983 102.115C149.74 102.532 143.089 105.449 141.631 103.491C140.174 101.532 144.647 98.5009 146.689 96.5976Z" fill="url(#paint9_linear_7246_66365)"/>
<path d="M146.689 96.5976L147.234 97.1827L147.234 97.1827L146.689 96.5976ZM141.631 103.491L140.99 103.968L140.99 103.968L141.631 103.491ZM158.926 95.1925L159.265 94.4677L159.265 94.4677L158.926 95.1925ZM165.5 100.505L166.252 100.778L166.252 100.778L165.5 100.505ZM153.983 102.115L153.905 101.319L153.905 101.319L153.983 102.115ZM151.263 86.8496V92.3438H152.863V86.8496H151.263ZM152.063 92.3438C151.602 91.69 151.602 91.69 151.602 91.6901C151.602 91.6901 151.602 91.6901 151.602 91.6902C151.601 91.6903 151.601 91.6904 151.601 91.6906C151.6 91.6909 151.6 91.6914 151.599 91.6921C151.597 91.6933 151.595 91.6951 151.591 91.6975C151.585 91.7022 151.575 91.7092 151.562 91.7183C151.536 91.7364 151.499 91.7631 151.45 91.7977C151.354 91.8667 151.214 91.9671 151.04 92.0935C150.692 92.3461 150.207 92.7027 149.658 93.1196C148.564 93.9491 147.194 95.0323 146.143 96.0125L147.234 97.1827C148.224 96.2596 149.542 95.2159 150.625 94.3943C151.164 93.9856 151.639 93.6357 151.98 93.3881C152.151 93.2643 152.287 93.1663 152.381 93.0993C152.428 93.0659 152.464 93.0402 152.488 93.023C152.5 93.0144 152.509 93.0079 152.515 93.0037C152.518 93.0015 152.521 93 152.522 92.9989C152.523 92.9984 152.523 92.998 152.524 92.9978C152.524 92.9977 152.524 92.9976 152.524 92.9976C152.524 92.9976 152.524 92.9976 152.524 92.9975C152.524 92.9975 152.524 92.9976 152.063 92.3438ZM146.143 96.0125C145.65 96.472 145.013 96.9969 144.313 97.5932C143.628 98.1775 142.896 98.8181 142.271 99.4694C141.655 100.11 141.086 100.818 140.781 101.547C140.463 102.308 140.406 103.184 140.99 103.968L142.273 103.013C142.128 102.818 142.083 102.581 142.258 102.164C142.446 101.713 142.849 101.177 143.425 100.578C143.991 99.9884 144.669 99.3918 145.351 98.8112C146.018 98.2426 146.706 97.6748 147.234 97.1827L146.143 96.0125ZM152.063 92.3438C151.782 93.093 151.782 93.093 151.782 93.093C151.782 93.093 151.782 93.093 151.782 93.093C151.783 93.0931 151.783 93.0931 151.783 93.0932C151.783 93.0933 151.784 93.0936 151.785 93.0939C151.787 93.0946 151.789 93.0956 151.793 93.0969C151.8 93.0996 151.811 93.1036 151.825 93.109C151.853 93.1197 151.896 93.1357 151.951 93.1566C152.061 93.1983 152.222 93.2597 152.425 93.3379C152.831 93.4942 153.403 93.7172 154.069 93.9839C155.404 94.5183 157.104 95.2241 158.588 95.9173L159.265 94.4677C157.741 93.7559 156.009 93.0373 154.664 92.4986C153.99 92.2288 153.411 92.0031 153 91.8448C152.794 91.7656 152.631 91.7032 152.518 91.6606C152.462 91.6392 152.418 91.6228 152.389 91.6117C152.374 91.6062 152.363 91.6019 152.355 91.599C152.351 91.5976 152.349 91.5965 152.347 91.5958C152.346 91.5954 152.345 91.5951 152.344 91.5949C152.344 91.5948 152.344 91.5947 152.344 91.5947C152.344 91.5946 152.344 91.5946 152.343 91.5946C152.343 91.5946 152.343 91.5946 152.063 92.3438ZM158.588 95.9173C160.168 96.6556 161.924 97.3339 163.248 98.1531C163.903 98.5581 164.357 98.9438 164.603 99.3061C164.823 99.6292 164.866 99.9079 164.748 100.232L166.252 100.778C166.572 99.8981 166.388 99.0864 165.927 98.4072C165.492 97.7673 164.812 97.2388 164.09 96.7923C162.661 95.9085 160.692 95.1346 159.265 94.4677L158.588 95.9173ZM140.99 103.968C141.596 104.784 142.639 104.965 143.584 104.961C144.571 104.956 145.744 104.744 146.939 104.474C148.13 104.205 149.445 103.853 150.657 103.559C151.895 103.259 153.06 103.01 154.061 102.911L153.905 101.319C152.784 101.429 151.527 101.701 150.279 102.004C149.005 102.313 147.771 102.646 146.586 102.913C145.407 103.18 144.378 103.357 143.575 103.361C142.731 103.365 142.395 103.177 142.273 103.013L140.99 103.968ZM154.061 102.911C155.073 102.812 156.229 102.808 157.438 102.826C158.629 102.843 159.883 102.881 161.022 102.856C162.156 102.831 163.258 102.744 164.153 102.481C165.04 102.222 165.905 101.734 166.252 100.778L164.748 100.232C164.658 100.48 164.396 100.743 163.703 100.946C163.02 101.146 162.093 101.232 160.987 101.257C159.887 101.281 158.69 101.244 157.461 101.226C156.249 101.208 155.014 101.21 153.905 101.319L154.061 102.911Z" fill="#837A6D"/>
<path d="M148.525 98.2935C148.408 98.3607 146.835 97.5482 146.835 97.5482C146.835 97.5482 147.287 97.1421 147.552 96.896C147.818 96.6499 148.371 96.1791 148.371 96.1791C148.371 96.1791 148.642 98.2263 148.525 98.2935Z" fill="url(#paint10_linear_7246_66365)"/>
<path d="M157.254 97.2032C157.383 97.2438 158.564 95.9062 158.564 95.9062C158.564 95.9062 157.914 95.6094 157.567 95.4492C157.22 95.2891 156.606 95.0312 156.606 95.0312C156.606 95.0312 157.125 97.1625 157.254 97.2032Z" fill="url(#paint11_linear_7246_66365)"/>
<path d="M115.271 78.0056C116.25 77.1227 119.588 76.9244 121.491 77.0551C123.394 77.1858 126.706 77.9462 127.353 78.9678C128.001 79.9894 126.867 81.4018 126.057 82.1605C125.246 82.9191 122.828 83.2721 120.526 83.2484C118.224 83.2248 115.437 82.5669 114.959 81.598C114.48 80.6291 114.292 78.8885 115.271 78.0056Z" fill="url(#paint12_linear_7246_66365)"/>
<path d="M180.947 71.3613C179.805 70.6493 176.723 70.7069 175.42 71.0104C174.118 71.3139 170.718 73.3371 170.91 75.1692C171.103 77.0014 173.214 76.9165 174.828 76.9165C176.441 76.9165 177.955 76.9807 180.391 76.2425C182.827 75.5042 182.905 74.626 182.898 73.9018C182.892 73.1776 182.089 72.0733 180.947 71.3613Z" fill="url(#paint13_linear_7246_66365)"/>
<path d="M133.645 82.8229C133.645 82.8229 117.065 86.7925 114.285 87.7054C111.504 88.6184 104.822 90.9991 101.881 92.2117C98.9399 93.4244 90.9368 98.241 90.9368 98.241" stroke="url(#paint14_linear_7246_66365)" stroke-width="0.4" stroke-linecap="round"/>
<path d="M100.978 138.744V154.529H99.3076V138.744H100.978ZM92.5576 139.922C94.8955 139.922 96.6182 142.066 96.6182 145.441C96.6182 148.834 94.8955 150.979 92.5576 150.979C90.1846 150.979 88.4795 148.834 88.4795 145.441C88.4795 142.066 90.1846 139.922 92.5576 139.922ZM92.5576 141.416C91.0986 141.416 90.0967 142.963 90.0967 145.441C90.0967 147.938 91.0986 149.484 92.5576 149.484C93.999 149.484 95.001 147.938 95.001 145.441C95.001 142.963 93.999 141.416 92.5576 141.416ZM111.753 140.256V150.609H104.37V140.256H111.753ZM106.022 141.574V149.256H110.136V141.574H106.022ZM116.534 138.744V154.529H114.864V138.744H116.534ZM124.849 143.385C124.849 146.021 126.571 148.746 128.997 149.783L128.083 151.084C126.229 150.267 124.752 148.535 124.022 146.426C123.293 148.676 121.808 150.592 119.979 151.488L119.013 150.17C121.386 149.062 123.144 146.092 123.161 143.385V141.715H119.558V140.326H128.435V141.715H124.849V143.385ZM132.091 138.744V154.494H130.421V138.744H132.091ZM146.874 138.744V145.02H149.317V146.408H146.874V154.477H145.204V138.744H146.874ZM142.761 140.396C142.743 144.949 140.739 149.01 135.554 151.576L134.622 150.275C138.568 148.307 140.713 145.459 141.056 141.785H135.413V140.396H142.761ZM157.913 147.973V149.801H160.374V147.973H161.921V154.301H156.349V147.973H157.913ZM157.913 153H160.374V151.066H157.913V153ZM166.491 149.15C166.491 150.803 167.405 152.473 169.356 153.158L168.495 154.424C167.071 153.879 166.148 152.851 165.665 151.594C165.138 152.824 164.206 153.861 162.853 154.424L162.009 153.158C163.907 152.385 164.839 150.715 164.839 149.15V147.867H166.491V149.15ZM158.915 139.412C160.989 139.412 162.589 140.59 162.94 142.348H166.017V138.744H167.687V147.094H166.017V143.719H162.958C162.615 145.529 161.007 146.707 158.915 146.707C156.507 146.707 154.784 145.23 154.784 143.051C154.784 140.906 156.507 139.412 158.915 139.412ZM158.915 140.801C157.421 140.801 156.384 141.715 156.384 143.051C156.384 144.404 157.421 145.336 158.915 145.354C160.374 145.336 161.411 144.404 161.411 143.051C161.411 141.715 160.374 140.801 158.915 140.801ZM174.384 139.922C176.52 139.922 178.084 141.732 178.339 144.65H181.591V138.744H183.243V154.529H181.591V146.004H178.356C178.172 149.071 176.572 150.979 174.384 150.979C172.028 150.979 170.376 148.834 170.394 145.441C170.376 142.066 172.028 139.922 174.384 139.922ZM174.384 141.416C172.96 141.416 171.976 142.963 171.976 145.441C171.976 147.938 172.96 149.484 174.384 149.484C175.808 149.484 176.792 147.938 176.792 145.441C176.792 142.963 175.808 141.416 174.384 141.416ZM200.083 151.137V152.525H185.669V151.137H189.114V147.023C187.822 146.312 187.04 145.178 187.04 143.771C187.04 141.293 189.466 139.658 192.841 139.658C196.233 139.658 198.659 141.293 198.659 143.771C198.659 145.16 197.903 146.276 196.638 146.988V151.137H200.083ZM192.841 140.994C190.362 140.994 188.657 142.066 188.657 143.771C188.657 145.459 190.362 146.566 192.841 146.566C195.302 146.566 197.042 145.459 197.042 143.771C197.042 142.066 195.302 140.994 192.841 140.994ZM190.767 151.137H194.95V147.621C194.309 147.788 193.597 147.867 192.841 147.867C192.103 147.867 191.399 147.788 190.767 147.639V151.137Z" fill="#AFACA7"/>
<defs>
<linearGradient id="paint0_linear_7246_66365" x1="90.4135" y1="101.935" x2="132.786" y2="86.0663" gradientUnits="userSpaceOnUse">
<stop stop-color="#777777"/>
<stop offset="1" stop-color="#ADADAD"/>
</linearGradient>
<linearGradient id="paint1_linear_7246_66365" x1="93.8092" y1="107.126" x2="134.331" y2="87.1011" gradientUnits="userSpaceOnUse">
<stop stop-color="#777777"/>
<stop offset="1" stop-color="#ADADAD"/>
</linearGradient>
<linearGradient id="paint2_linear_7246_66365" x1="100.027" y1="115.934" x2="131.278" y2="90.1189" gradientUnits="userSpaceOnUse">
<stop stop-color="#777777"/>
<stop offset="1" stop-color="#ADADAD"/>
</linearGradient>
<linearGradient id="paint3_linear_7246_66365" x1="194.572" y1="102.688" x2="167.053" y2="87.088" gradientUnits="userSpaceOnUse">
<stop stop-color="#777777"/>
<stop offset="1" stop-color="#ADADAD"/>
</linearGradient>
<linearGradient id="paint4_linear_7246_66365" x1="198.863" y1="86.3989" x2="164.049" y2="81.3898" gradientUnits="userSpaceOnUse">
<stop stop-color="#777777"/>
<stop offset="1" stop-color="#ADADAD"/>
</linearGradient>
<linearGradient id="paint5_linear_7246_66365" x1="201.034" y1="91.242" x2="165.886" y2="83.0283" gradientUnits="userSpaceOnUse">
<stop stop-color="#777777"/>
<stop offset="1" stop-color="#ADADAD"/>
</linearGradient>
<linearGradient id="paint6_linear_7246_66365" x1="199.729" y1="96.2694" x2="165.089" y2="84.3875" gradientUnits="userSpaceOnUse">
<stop stop-color="#777777"/>
<stop offset="1" stop-color="#ADADAD"/>
</linearGradient>
<linearGradient id="paint7_linear_7246_66365" x1="131.545" y1="77.7428" x2="131.995" y2="65.5321" gradientUnits="userSpaceOnUse">
<stop stop-color="#F2F2F2"/>
<stop offset="1" stop-color="#303030"/>
</linearGradient>
<linearGradient id="paint8_linear_7246_66365" x1="165.513" y1="73.4282" x2="164.354" y2="63.89" gradientUnits="userSpaceOnUse">
<stop stop-color="#F2F2F2"/>
<stop offset="1" stop-color="#303030"/>
</linearGradient>
<linearGradient id="paint9_linear_7246_66365" x1="150.557" y1="77.4995" x2="153.428" y2="104.166" gradientUnits="userSpaceOnUse">
<stop stop-color="#A3A3A3"/>
<stop offset="1" stop-color="#909090"/>
</linearGradient>
<linearGradient id="paint10_linear_7246_66365" x1="145.798" y1="94.9749" x2="148.411" y2="98.3457" gradientUnits="userSpaceOnUse">
<stop stop-color="#F1F1F1"/>
<stop offset="1" stop-color="white"/>
</linearGradient>
<linearGradient id="paint11_linear_7246_66365" x1="158.533" y1="93.8057" x2="157.262" y2="97.2161" gradientUnits="userSpaceOnUse">
<stop stop-color="#F1F1F1"/>
<stop offset="1" stop-color="white"/>
</linearGradient>
<linearGradient id="paint12_linear_7246_66365" x1="124.528" y1="76.6037" x2="119.889" y2="87.506" gradientUnits="userSpaceOnUse">
<stop stop-color="#E8E8E8"/>
<stop offset="0.119287" stop-color="#ACACAC"/>
<stop offset="1" stop-color="#5E5E5E"/>
</linearGradient>
<linearGradient id="paint13_linear_7246_66365" x1="170.902" y1="72.6725" x2="179.561" y2="82.8696" gradientUnits="userSpaceOnUse">
<stop stop-color="#E8E8E8"/>
<stop offset="0.117271" stop-color="#ACACAC"/>
<stop offset="1" stop-color="#5E5E5E"/>
</linearGradient>
<linearGradient id="paint14_linear_7246_66365" x1="90.3868" y1="96.2679" x2="134.004" y2="84.111" gradientUnits="userSpaceOnUse">
<stop stop-color="#777777"/>
<stop offset="1" stop-color="#ADADAD"/>
</linearGradient>
</defs>
</svg>
